<svg width="94" height="91" viewBox="0 0 94 91" fill="none" xmlns="http://www.w3.org/2000/svg">
<path d="M60.7523 5.09614C26.7992 -4.99761 -9.11224 31.5024 7.6638 64.5284C20.7628 90.3305 57.4242 94.6222 77.1326 73.7368C98.5857 51.0076 91.8878 14.3253 60.7523 5.09614ZM38.2732 52.0701C35.4034 49.1847 34.9555 44.4034 36.8617 40.8774C40.5336 34.0857 51.0076 32.0076 55.6065 38.992C62.3565 49.2107 46.0023 59.8513 38.2628 52.0701H38.2732Z" fill="#F1E5DB"/>
<path d="M79.5596 76.1273C57.0961 99.9086 15.1325 93.0283 2.97108 62.3408C-10.9404 27.2783 26.5961 -8.55499 61.6534 1.82001C95.32 11.7731 102.841 51.4867 79.5596 76.1429V76.1273ZM77.1482 73.7367C98.5961 51.0075 91.8982 14.3252 60.768 5.09605C26.8096 -4.9977 -9.10184 31.4919 7.68983 64.5179C20.7888 90.32 57.4502 94.6065 77.1586 73.7263L77.1482 73.7367Z" fill="black"/>
<path d="M48.0075 22.6379C48.0075 22.9035 47.9554 23.1639 47.8513 23.4139C47.7523 23.6587 47.6013 23.8774 47.4138 24.0701C47.2211 24.2576 47.0023 24.4035 46.7523 24.5076C46.5023 24.6118 46.2419 24.6587 45.9763 24.6587C45.7054 24.6587 45.445 24.6118 45.195 24.5076C44.9502 24.4035 44.7263 24.2576 44.5388 24.0701C44.3461 23.8774 44.2002 23.6587 44.0961 23.4139C43.9919 23.1639 43.9398 22.9035 43.9398 22.6379C43.9398 22.367 43.9919 22.1118 44.0961 21.8618C44.2002 21.617 44.3461 21.3983 44.5388 21.2056C44.7263 21.0181 44.9502 20.8722 45.195 20.7681C45.445 20.6639 45.7054 20.6118 45.9763 20.6118C46.2419 20.6118 46.5023 20.6639 46.7523 20.7681C47.0023 20.8722 47.2211 21.0181 47.4138 21.2056C47.6013 21.3983 47.7523 21.617 47.8513 21.8618C47.9554 22.1118 48.0075 22.367 48.0075 22.6379Z" fill="black"/>
<path d="M17.0024 27.0493C17.5076 26.9763 18.2107 27.1274 18.5024 27.5701C19.5284 29.1118 17.0805 31.6534 15.3878 30.8982C13.5076 30.0597 15.3878 27.3045 17.0024 27.0493Z" fill="black"/>
<path d="M57.4867 24.2211C58.8722 23.9398 60.7784 24.9034 60.6899 26.419C60.5649 28.8461 56.0388 27.8461 56.419 25.3461C56.4972 24.8513 56.9815 24.32 57.4763 24.2211H57.4867Z" fill="black"/>
<path d="M30.1898 62.9764C28.5388 61.2524 32.3409 58.1535 33.4555 60.3201C34.3877 62.1118 31.5023 64.341 30.1898 62.9764Z" fill="black"/>
<path d="M22.2524 55.5126C23.268 55.3356 24.8826 55.7887 25.0076 56.9658C25.2003 58.6481 22.9347 59.1689 21.6899 58.4085C20.2941 57.5491 20.6638 55.7783 22.2524 55.5126Z" fill="black"/>
<path d="M49.3929 6.66386C52.2887 6.16907 51.2106 9.91386 48.9242 10.2316C46.0492 10.6222 47.1846 7.04407 49.3929 6.66386Z" fill="black"/>
<path d="M16.8878 36.6377C17.893 36.5022 18.1586 38.0179 18.1065 38.7366C18.0336 39.7002 16.9867 41.9137 15.82 41.0543C14.5857 40.1429 15.3982 36.8564 16.8982 36.6533L16.8878 36.6377Z" fill="black"/>
<path d="M28.6691 23.9034C29.4191 23.1586 31.2993 22.6638 32.0857 23.5336C33.3045 24.8878 30.3461 26.8722 28.7055 25.9243C27.893 25.4555 28.0961 24.4816 28.6691 23.9138V23.9034Z" fill="black"/>
<path d="M38.768 9.50766C40.0545 10.6847 36.8149 14.2004 35.6795 12.7577C34.6535 11.4556 37.5233 8.37224 38.768 9.50766Z" fill="black"/>
<path d="M24.5493 16.4763C26.8879 15.9971 26.5181 19.3982 24.6379 19.945C22.2004 20.6534 22.6066 16.8825 24.5493 16.4763Z" fill="black"/>
<path d="M29.5961 32.0753C31.9972 31.9868 31.8201 34.4659 29.5545 34.6639C26.6951 34.9086 27.0284 32.1743 29.5961 32.0753Z" fill="black"/>
<path d="M46.0023 72.5233C48.1221 72.2941 48.2471 75.1014 46.2523 75.4972C43.9138 75.966 43.8669 72.7525 46.0023 72.5233Z" fill="black"/>
<path d="M54.8722 76.2316C55.6847 76.1014 56.0545 76.5701 55.9868 77.341C55.9139 78.341 54.2732 80.1118 53.216 79.5545C51.9347 78.8878 53.6378 76.4087 54.8566 76.2316H54.8722Z" fill="black"/>
<path d="M22.1378 66.2993C22.7836 66.1638 23.4555 66.3253 23.4815 67.0961C23.5336 68.1743 21.794 69.8826 20.7107 69.3097C19.4659 68.6534 21.0805 66.5284 22.1378 66.3149V66.2993Z" fill="black"/>
<path d="M28.2732 74.1535C30.1169 73.9035 29.1898 77.2524 27.6742 77.5962C25.695 78.0493 26.518 74.393 28.2732 74.1535Z" fill="black"/>
<path d="M14.1534 49.8462C14.9816 49.8202 17.3982 50.4764 16.8514 51.6639C16.4191 52.6274 13.3409 51.9295 12.9086 51.0076C12.5284 50.1847 13.5076 49.8566 14.143 49.8306L14.1534 49.8462Z" fill="black"/>
<path d="M25.4295 40.4608C26.0597 40.3566 27.7628 40.3566 27.9555 41.1691C28.2628 42.5337 25.7316 42.7212 24.7941 42.242C23.5441 41.5962 24.4087 40.6379 25.4295 40.4608Z" fill="black"/>
<path d="M37.4503 71.4712C36.1273 72.7889 32.7732 70.742 35.0857 69.9295C36.2263 69.5285 38.518 70.4139 37.4503 71.4712Z" fill="black"/>
<path d="M55.0336 67.846C55.9138 66.8304 58.7732 67.096 57.9555 68.5127C57.169 69.8929 53.7524 69.3252 55.0336 67.846Z" fill="black"/>
<path d="M43.9138 64.7837C46.3565 64.367 45.1117 67.0493 43.2315 67.1587C41.3513 67.2733 42.2888 65.0597 43.9138 64.7837Z" fill="black"/>
<path d="M37.4086 20.1483C37.4086 20.4556 37.2992 20.716 37.0804 20.9347C36.8617 21.1483 36.6013 21.2576 36.294 21.2576C35.9815 21.2576 35.7211 21.1483 35.5023 20.9347C35.2836 20.716 35.1742 20.4556 35.1742 20.1483C35.1742 19.8358 35.2836 19.5754 35.5023 19.3566C35.7211 19.1431 35.9815 19.0337 36.294 19.0337C36.6013 19.0337 36.8617 19.1431 37.0804 19.3566C37.2992 19.5754 37.4086 19.8358 37.4086 20.1483Z" fill="black"/>
<path d="M55.6691 16.6533C55.6691 16.9606 55.5597 17.2262 55.3409 17.4398C55.1274 17.6585 54.8618 17.7679 54.5545 17.7679C54.242 17.7679 53.9816 17.6585 53.7628 17.4398C53.5441 17.2262 53.4347 16.9606 53.4347 16.6533C53.4347 16.346 53.5441 16.0856 53.7628 15.8669C53.9816 15.6481 54.242 15.5439 54.5545 15.5439C54.8618 15.5439 55.1274 15.6481 55.3409 15.8669C55.5597 16.0856 55.6691 16.346 55.6691 16.6533Z" fill="black"/>
<path d="M40.6899 82.7054C39.7108 81.7315 41.5545 80.1898 42.4191 81.1481C43.3306 82.1742 41.5649 83.5804 40.6899 82.7054Z" fill="black"/>
<path d="M56.5336 60.9763C56.5336 61.2315 56.4451 61.4503 56.2628 61.6274C56.0805 61.8097 55.8617 61.8982 55.6065 61.8982C55.3513 61.8982 55.1326 61.8097 54.9503 61.6274C54.768 61.4503 54.6794 61.2315 54.6794 60.9763C54.6794 60.7211 54.768 60.5024 54.9503 60.3201C55.1326 60.143 55.3513 60.0544 55.6065 60.0544C55.8617 60.0544 56.0805 60.143 56.2628 60.3201C56.4451 60.5024 56.5336 60.7211 56.5336 60.9763Z" fill="black"/>
<path d="M25.0441 49.6951C25.0441 49.9347 24.9607 50.1378 24.7889 50.3097C24.617 50.4815 24.4087 50.5649 24.1691 50.5649C23.9243 50.5649 23.7212 50.4815 23.5493 50.3097C23.3774 50.1378 23.2941 49.9347 23.2941 49.6951C23.2941 49.4503 23.3774 49.2472 23.5493 49.0753C23.7212 48.9034 23.9243 48.8201 24.1691 48.8201C24.4087 48.8201 24.617 48.9034 24.7889 49.0753C24.9607 49.2472 25.0441 49.4503 25.0441 49.6951Z" fill="black"/>
<path d="M45.8982 31.3148C57.867 30.3409 65.3149 43.419 57.143 52.6534C51.1742 59.4086 38.9451 60.544 34.0545 51.9971C28.8982 42.9763 36.1117 32.1117 45.9138 31.3148H45.8982ZM38.2992 52.07C46.0388 59.8513 62.393 49.2107 55.643 38.9919C51.0336 32.0075 40.5753 34.0857 36.9034 40.8773C34.9972 44.4034 35.4399 49.1846 38.3149 52.07H38.2992Z" fill="black"/>
</svg>
